<?xml version="1.0" encoding="UTF-8" standalone="no"?>
<svg
   xmlns:dc="http://purl.org/dc/elements/1.1/"
   xmlns:cc="http://creativecommons.org/ns#"
   xmlns:rdf="http://www.w3.org/1999/02/22-rdf-syntax-ns#"
   xmlns:svg="http://www.w3.org/2000/svg"
   xmlns="http://www.w3.org/2000/svg"
   xmlns:sodipodi="http://sodipodi.sourceforge.net/DTD/sodipodi-0.dtd"
   xmlns:inkscape="http://www.inkscape.org/namespaces/inkscape"
   inkscape:version="1.0 (4035a4f, 2020-05-01)"
   height="150.27"
   width="449.92001"
   sodipodi:docname="vespucio_logo.svg"
   xml:space="preserve"
   viewBox="0 0 449.92001 150.27"
   y="0px"
   x="0px"
   id="Capa_1"
   version="1.1"><metadata
   id="metadata914"><rdf:RDF><cc:Work
       rdf:about=""><dc:format>image/svg+xml</dc:format><dc:type
         rdf:resource="http://purl.org/dc/dcmitype/StillImage" /></cc:Work></rdf:RDF></metadata><defs
   id="defs912" /><sodipodi:namedview
   inkscape:current-layer="g907"
   inkscape:window-maximized="1"
   inkscape:window-y="23"
   inkscape:window-x="0"
   inkscape:cy="74.97"
   inkscape:cx="224.955"
   inkscape:zoom="1.3289465"
   showgrid="false"
   id="namedview910"
   inkscape:window-height="941"
   inkscape:window-width="1680"
   inkscape:pageshadow="2"
   inkscape:pageopacity="0"
   guidetolerance="10"
   gridtolerance="10"
   objecttolerance="10"
   borderopacity="1"
   bordercolor="#666666"
   pagecolor="#ffffff" />
<style
   id="style833"
   type="text/css">
	.st0{fill:none;}
	.st1{fill:#53575A;}
	.st2{fill:#F18A00;}
	.st3{fill:#A81B8D;}
	.st4{fill:#00AFAA;}
	.st5{fill:#FF595A;}
</style>
<g
   transform="translate(-7.56,-6.94)"
   id="g907">
	<g
   id="g849">
		<rect
   id="rect835"
   height="150.60001"
   width="449.84"
   class="st0"
   y="6.5300002"
   x="7.48" />
		<rect
   id="rect837"
   height="228.45"
   width="527.69"
   class="st0"
   y="-32.400002"
   x="-31.440001" />
		<g
   id="g847">
			<rect
   id="rect839"
   height="38.919998"
   width="38.919998"
   class="st0"
   y="-32.400002"
   x="-31.440001" />
			<rect
   id="rect841"
   height="38.919998"
   width="38.919998"
   class="st0"
   y="157.13"
   x="-31.440001" />
			<rect
   id="rect843"
   height="38.919998"
   width="38.919998"
   class="st0"
   y="-32.400002"
   x="457.32999" />
			<rect
   id="rect845"
   height="38.919998"
   width="38.919998"
   class="st0"
   y="157.13"
   x="457.32999" />
		</g>
	</g>
	<g
   id="g905">
		<g
   id="g883">
			<g
   id="g881">
				<g
   id="g879">
					<g
   id="g867">
						<rect
   id="rect851"
   height="48.150002"
   width="11.36"
   class="st1"
   y="61.799999"
   x="360.87" />
						<path
   id="path853"
   d="m 267.62,55.93 c 0.01,-0.02 7.38,-9.61 7.38,-9.61 l 11.55,-0.04 c 0,0 -10.18,9.61 -10.26,9.62 -1.68,0.03 -3.37,0.04 -5.09,0.04 z"
   class="st1" />
						<path
   id="path855"
   d="m 426.86,110.47 c -0.58,0 -1.16,-0.02 -1.76,-0.06 -6.99,-0.43 -12.08,-3.06 -15.57,-8.02 -2.41,-3.43 -3.77,-7.57 -4.17,-12.64 -0.5,-6.41 0.21,-11.43 2.25,-15.8 3.34,-7.17 9.3,-11.39 17.73,-12.55 1.51,-0.21 3.01,-0.31 4.48,-0.31 4.79,0 9.39,1.12 13.69,3.34 0.13,0.07 0.28,0.12 0.44,0.18 l 0.54,0.19 0.47,-0.42 c 0.16,-0.28 0.3,-0.6 0.44,-0.92 0.19,-0.45 0.46,-1.06 0.69,-1.15 0.3,-0.13 0.69,-0.19 1.24,-0.19 0.3,0 0.61,0.02 0.91,0.03 0.33,0.02 0.66,0.03 0.97,0.03 0.01,0 0.01,0 0.02,0 1.55,0 2.91,0.02 4.27,0.04 h 0.35 v 31.81 c 0,0.57 0,1.14 0.03,1.72 0.11,2.63 1.47,4.42 3.6,4.79 v 9.49 c -1.14,0.28 -2.31,0.41 -3.49,0.41 v 0 c -5.16,0 -9.2,-2.62 -10.8,-7.01 l -0.04,-0.11 -0.19,-0.25 -0.41,-0.49 -0.59,0.29 c -0.16,0.11 -0.32,0.21 -0.44,0.38 -3.39,4.86 -8.18,7.22 -14.66,7.22 z m 4.67,-39.79 c -0.99,0 -2,0.06 -3.01,0.18 -5.03,0.6 -8.52,3.47 -10.09,8.3 -1.31,4.02 -1.44,8.25 -0.37,12.56 1.45,5.88 5.46,8.86 11.91,8.86 6.38,-0.06 10.57,-3.38 11.71,-9.1 0.44,-2.21 0.54,-4.51 0.63,-6.73 0.04,-1 0.08,-1.99 0.15,-2.98 l 0.05,-0.66 h -0.05 c 0,-0.09 0,-0.2 0.01,-0.31 0.03,-1.49 0.1,-4.28 -0.2,-5.95 0.05,-1.07 -0.42,-1.8 -1.56,-2.29 -2.91,-1.24 -6,-1.88 -9.18,-1.88 z"
   class="st1" />
						<polygon
   id="polygon857"
   points="314.23,61.82 327.51,101.89 340.84,61.82 355.27,61.82 336.73,109.95 318.34,109.95 299.8,61.82 "
   class="st1" />
						<path
   id="path859"
   d="m 239.41,61.78 c -5.13,-9.67 -13.69,-14.93 -25.44,-15.63 -4.78,-0.29 -9.54,-0.33 -13.16,-0.33 -1.92,0 -14.03,0.06 -14.03,0.06 v 10.68 c 0,0 19.22,-0.04 20.14,-0.04 2.08,0 4.55,0.04 7.08,0.31 8.5,0.94 13.79,5.73 15.73,14.25 1.22,5.34 1.04,10.58 -0.52,15.57 -2.29,7.31 -7.54,11.57 -15.17,12.33 -1.62,0.16 -3.37,0.24 -5.49,0.24 0,0 0,0 0,0 -1.47,0 -2.95,-0.03 -4.45,-0.07 -1.51,-0.04 -3.03,-0.07 -4.57,-0.07 h -0.67 V 66.55 h -12.08 v 43.31 l 8.75,0.01 c 2.06,0 4.12,-0.01 6.17,-0.03 0.81,-0.01 4.57,-0.01 4.57,-0.01 3.07,0 6.33,-0.03 9.48,-0.36 8.88,-0.94 15.95,-4.73 21,-11.28 3.47,-4.5 5.53,-9.97 6.12,-16.26 0.73,-7.79 -0.4,-14.39 -3.46,-20.15 z"
   class="st1" />
						<circle
   id="circle861"
   r="6.1199999"
   cy="49.580002"
   cx="366.54999"
   class="st1" />
						<path
   id="path863"
   d="m 401.77,98.84 c -0.01,0 -0.02,0.01 -0.03,0.01 -0.7,0.42 -1.36,0.82 -2.09,1.11 -0.84,0.33 -1.66,0.5 -2.42,0.5 -2.6,0 -4.29,-1.88 -4.41,-4.91 -0.02,-0.6 -0.02,-1.19 -0.02,-1.88 V 43.46 h -11.58 c 0,0 0,40.1 0.01,53.23 0,0.99 0.06,2.07 0.18,3.2 0.53,4.86 2.65,7.97 6.47,9.51 1.76,0.71 3.54,1.07 5.26,1.07 2.74,0 5.45,-0.9 8.04,-2.68 0.26,-0.18 0.53,-0.67 0.54,-0.97 0.06,-2.22 0.05,-4.45 0.04,-6.74 z"
   class="st1" />
						<path
   id="path865"
   d="m 268.57,110.47 c -0.58,0 -1.16,-0.02 -1.76,-0.06 -6.99,-0.43 -12.08,-3.06 -15.57,-8.02 -2.41,-3.43 -3.77,-7.57 -4.17,-12.64 -0.5,-6.41 0.21,-11.43 2.25,-15.8 3.34,-7.17 9.3,-11.39 17.73,-12.55 1.51,-0.21 3.01,-0.31 4.48,-0.31 4.79,0 9.39,1.12 13.69,3.34 0.13,0.07 0.28,0.12 0.44,0.18 l 0.54,0.19 0.47,-0.42 c 0.16,-0.28 0.3,-0.6 0.44,-0.92 0.19,-0.45 0.46,-1.06 0.69,-1.15 0.3,-0.13 0.69,-0.19 1.24,-0.19 0.3,0 0.61,0.02 0.91,0.03 0.33,0.02 0.66,0.03 0.97,0.03 0.01,0 0.01,0 0.02,0 1.55,0 2.91,0.02 4.27,0.04 h 0.35 v 31.81 c 0,0.57 0,1.14 0.03,1.72 0.11,2.63 1.47,4.42 3.6,4.79 v 9.49 c -1.14,0.28 -2.31,0.41 -3.49,0.41 v 0 c -5.16,0 -9.2,-2.62 -10.8,-7.01 l -0.04,-0.11 -0.19,-0.25 -0.41,-0.49 -0.59,0.29 c -0.16,0.11 -0.32,0.21 -0.44,0.38 -3.39,4.86 -8.18,7.22 -14.66,7.22 z m 4.67,-39.79 c -0.99,0 -2,0.06 -3.01,0.18 -5.03,0.6 -8.52,3.47 -10.09,8.3 -1.31,4.02 -1.44,8.25 -0.37,12.56 1.45,5.88 5.46,8.86 11.91,8.86 6.38,-0.06 10.57,-3.38 11.71,-9.1 0.44,-2.21 0.54,-4.51 0.63,-6.73 0.04,-1 0.08,-1.99 0.15,-2.98 l 0.05,-0.66 h -0.05 c 0,-0.09 0,-0.2 0.01,-0.31 0.03,-1.49 0.1,-4.28 -0.2,-5.95 0.05,-1.07 -0.42,-1.8 -1.56,-2.29 -2.91,-1.24 -6,-1.88 -9.18,-1.88 z"
   class="st1" />
					</g>
					<g
   id="g877">
						<path
   id="path869"
   d="m 77.29,6.94 c -12.4,0 -22.48,10.08 -22.48,22.48 v 5.26 h 16.86 v -2.5 c 0,-4.62 3.76,-8.38 8.38,-8.38 h 13.7 v 47.25 h 16.86 V 6.94 Z"
   class="st2" />
						<path
   id="path871"
   d="m 93.76,129.45 v 2.51 c 0,4.62 -3.76,8.38 -8.38,8.38 H 71.68 V 93.1 H 54.81 v 64.11 h 33.33 c 12.4,0 22.48,-10.08 22.48,-22.48 v -5.28 z"
   class="st3" />
						<path
   id="path873"
   d="m 134.89,54.16 h -6.29 v 16.86 h 3.53 c 4.62,0 8.38,3.76 8.38,8.38 v 13.7 h -46.7 v 16.86 h 63.57 V 76.64 c 0,-12.39 -10.09,-22.48 -22.49,-22.48 z"
   class="st4" />
						<path
   id="path875"
   d="M 72.32,71.03 V 54.16 H 7.56 v 33.33 c 0,12.4 10.08,22.48 22.48,22.48 h 5.28 V 93.11 H 32.8 c -4.62,0 -8.38,-3.76 -8.38,-8.38 v -13.7 z"
   class="st5" />
					</g>
				</g>
			</g>
		</g>
		<g
   id="g903">
			<g
   id="g901">
				<path
   id="path885"
   d="m 186.36,129.55 h 5.25 l 4.96,15.91 4.96,-15.91 h 5.25 l -7.94,22.4 h -4.58 z"
   class="st1" />
				<path
   id="path887"
   d="m 211.86,151.96 v -22.4 h 14.88 v 3.94 h -9.92 v 5.5 h 8.61 v 3.94 h -8.61 v 5.09 h 9.92 v 3.94 h -14.88 z"
   class="st1" />
				<path
   id="path889"
   d="m 235.38,144.85 c 0.58,1.98 1.98,3.07 4.06,3.07 1.76,0 3.36,-0.64 3.36,-2.3 0,-0.86 -0.48,-1.66 -2.59,-2.4 l -2.43,-0.83 c -4.96,-1.7 -5.7,-4.8 -5.7,-6.66 0,-4.03 3.17,-6.53 7.55,-6.53 3.46,0 6.14,1.66 7.49,4.9 l -4.03,2.02 c -0.96,-2.27 -2.53,-2.53 -3.46,-2.53 -1.54,0 -2.72,0.61 -2.72,2.08 0,0.58 0.16,1.63 2.4,2.4 l 2.37,0.83 c 5.02,1.57 5.92,4.58 5.95,6.62 0,4.71 -4.1,6.79 -8.03,6.79 -4.29,0 -8.19,-2.43 -8.64,-6.59 z"
   class="st1" />
				<path
   id="path891"
   d="m 253.4,151.96 v -22.4 h 9.82 c 4.64,0 7.2,3.39 7.2,7.33 0,3.94 -2.59,7.17 -7.2,7.17 h -4.86 v 7.9 z m 9.18,-11.81 c 1.76,0 2.85,-1.38 2.85,-3.3 0,-1.98 -1.09,-3.36 -2.85,-3.36 h -4.22 v 6.66 z"
   class="st1" />
				<path
   id="path893"
   d="m 294.1,129.55 v 13.92 c 0,5.76 -4.26,8.83 -9.28,8.83 -5.02,0 -9.25,-3.07 -9.25,-8.83 v -13.92 h 4.96 v 13.92 c 0,3.1 1.98,4.67 4.29,4.67 2.3,0 4.32,-1.57 4.32,-4.67 v -13.92 z"
   class="st1" />
				<path
   id="path895"
   d="m 311.86,129.2 c 3.49,0 5.76,1.12 8.03,2.82 l -2.05,3.78 c -1.63,-1.25 -3.42,-2.18 -5.95,-2.18 -4.54,0 -7.3,3.14 -7.3,7.14 0,4 2.75,7.14 7.3,7.14 2.53,0 4.32,-0.93 5.95,-2.18 l 2.05,3.78 c -2.27,1.7 -4.54,2.82 -8.03,2.82 -7.58,0 -12.29,-5.31 -12.29,-11.55 0,-6.24 4.7,-11.57 12.29,-11.57 z"
   class="st1" />
				<path
   id="path897"
   d="m 329.97,151.96 h -4.96 v -22.4 h 4.96 z"
   class="st1" />
				<path
   id="path899"
   d="m 347.34,129.2 c 6.4,0 11.62,5.18 11.62,11.55 0,6.37 -5.22,11.55 -11.62,11.55 -6.43,0 -11.65,-5.18 -11.65,-11.55 0,-6.36 5.22,-11.55 11.65,-11.55 z m 0,18.56 c 3.68,0 6.72,-2.91 6.72,-7.01 0,-4.1 -3.04,-7.01 -6.72,-7.01 -3.71,0 -6.75,2.91 -6.75,7.01 0,4.1 3.04,7.01 6.75,7.01 z"
   class="st1" />
			</g>
		</g>
	</g>
</g>
</svg>
